<?xml version="1.0" encoding="UTF-8" standalone="no"?>
<!-- Generated by IcoMoon.io -->

<svg
   xmlns:osb="http://www.openswatchbook.org/uri/2009/osb"
   xmlns:dc="http://purl.org/dc/elements/1.1/"
   xmlns:cc="http://creativecommons.org/ns#"
   xmlns:rdf="http://www.w3.org/1999/02/22-rdf-syntax-ns#"
   xmlns:svg="http://www.w3.org/2000/svg"
   xmlns="http://www.w3.org/2000/svg"
   xmlns:sodipodi="http://sodipodi.sourceforge.net/DTD/sodipodi-0.dtd"
   xmlns:inkscape="http://www.inkscape.org/namespaces/inkscape"
   version="1.1"
   width="512"
   height="512"
   viewBox="0 0 512 512"
   id="svg2"
   inkscape:version="0.48.5 r10040"
   sodipodi:docname="CuteSeCoDeveloper_logo.svg">
  <metadata
     id="metadata11">
    <rdf:RDF>
      <cc:Work
         rdf:about="">
        <dc:format>image/svg+xml</dc:format>
        <dc:type
           rdf:resource="http://purl.org/dc/dcmitype/StillImage" />
      </cc:Work>
    </rdf:RDF>
  </metadata>
  <defs
     id="defs9">
    <linearGradient
       id="linearGradient3763"
       osb:paint="solid">
      <stop
         style="stop-color:#000000;stop-opacity:1;"
         offset="0"
         id="stop3765" />
    </linearGradient>
  </defs>
  <sodipodi:namedview
     pagecolor="#ffffff"
     bordercolor="#666666"
     borderopacity="1"
     objecttolerance="10"
     gridtolerance="10"
     guidetolerance="10"
     inkscape:pageopacity="0"
     inkscape:pageshadow="2"
     inkscape:window-width="1377"
     inkscape:window-height="922"
     id="namedview7"
     showgrid="false"
     inkscape:zoom="0.4609375"
     inkscape:cx="-699.66102"
     inkscape:cy="171.38984"
     inkscape:window-x="654"
     inkscape:window-y="322"
     inkscape:window-maximized="0"
     inkscape:current-layer="svg2" />
  <g
     id="icomoon-ignore" />
  <path
     d="M256 0c-141.385 0-256 114.615-256 256s114.615 256 256 256 256-114.615 256-256-114.615-256-256-256zM128 128h256c4.569 0 9.002 0.981 13.072 2.831l-141.072 164.584-141.072-164.585c4.070-1.848 8.503-2.83 13.072-2.83zM96 352v-192c0-0.67 0.028-1.336 0.070-2l93.832 109.471-92.799 92.799c-0.722-2.668-1.103-5.443-1.103-8.27zM384 384h-256c-2.827 0-5.601-0.381-8.27-1.104l91.059-91.059 45.211 52.749 45.212-52.747 91.058 91.060c-2.67 0.72-5.443 1.101-8.27 1.101zM416 352c0 2.827-0.381 5.6-1.103 8.27l-92.8-92.799 93.833-109.471c0.042 0.664 0.070 1.33 0.070 2v192z"
     id="path5"
     style="fill:#0000ff" />
  <path
     inkscape:connector-curvature="0"
     d="M 468.57371,271.96085 330.21242,153.36512 c 6.44353,-12.10652 10.0997,-25.92125 10.0997,-40.59221 0,-47.784965 -38.73739,-86.522354 -86.52235,-86.522354 -8.74057,0 -17.17589,1.301445 -25.12934,3.71146 l 49.98768,49.987686 c 7.47758,7.47758 7.47758,19.713876 0,27.191458 l -30.4901,30.49012 c -7.47758,7.47758 -19.71388,7.47758 -27.19146,0 l -49.9877,-49.987699 c -2.41001,7.953456 -3.71144,16.388779 -3.71144,25.129329 0,47.78498 38.73738,86.52236 86.52236,86.52236 14.67093,0 28.48567,-3.65617 40.59218,-10.10029 l 118.59573,138.36129 c 6.88214,8.02855 18.63115,8.4798 26.10813,1.00283 l 30.49073,-30.49073 c 7.47697,-7.47698 7.02572,-19.2254 -1.00283,-26.10752 z"
     id="path5-5"
     style="fill:#ffffff;fill-opacity:1;stroke:#000000;stroke-width:25;stroke-miterlimit:4;stroke-opacity:1;stroke-dasharray:none" />
</svg>
